<svg xmlns="http://www.w3.org/2000/svg" xml:space="preserve" fill="#ffab66" stroke="fill:#fff7c2" viewBox="0 0 236.844 236.844">
  <path d="M236.062 70.277c-11.115-5.777-23.436-7.583-36.618-5.369-15.044 2.527-29.146 9.812-40.501 15.676-3.835 1.979-7.455 3.851-10.721 5.336-1.468.67-2.826 1.112-4.044 1.317-2.854.479-4.845-.327-6.083-2.462-3.323-5.721-3.104-19.211 4.01-26.125.508-.493.508-1.304-.003-1.846-.499-.527-1.356-.626-1.928-.197-1.915 1.441-4.288 2.432-6.863 2.865-4.495.754-9.191-.227-12.559-2.626-2.737-1.952-4.427-4.716-4.884-7.995-.101-.732-.804-1.284-1.563-1.23-.775.054-1.314.692-1.232 1.424.65 5.78-2.178 25.02-11.104 29.953-2.06 1.138-4.07-.201-4.07-.201-3.197-2.016-7.639-10.04-8.135-10.948-4.787-8.768-11.342-20.771-21.944-31.571-12.515-12.75-28.166-21.05-46.514-24.67-.714-.141-1.404.272-1.583.916-.184.666.193 1.372.875 1.645 4.573 1.825 13.094 7.328 16.022 16.37 2.313 7.139.471 14.763-5.474 22.658-.327.436-.338 1.024-.026 1.499.311.477.875.735 1.439.661 11.13-1.461 15.726 2.577 17.298 6.364 4.879 11.759-2.65 15.871-2.65 15.871-.643.356-.858.923-.669 1.536.195.629.826 1.059 1.498 1.021 10.236-.571 30.378 9.618 43.107 21.803 8.75 8.379 13.327 16.995 12.888 24.263-.039.63.378 1.213 1.015 1.418.621.201 1.313-.046 1.621-.566 3.495-5.875 11.885-10.196 23.628-12.169 9.821-1.649 21.245-1.552 31.339.266 9.852 1.774 17.163 5.054 19.565 8.771a1.499 1.499 0 0 0 1.741.596c.637-.229.979-.868.813-1.521-1.035-4.088-.159-8.504 2.465-12.433 2.859-4.277 7.401-7.307 12.154-8.105 3.127-.525 6.163-.091 9.021 1.288.488.236 1.09.185 1.501-.134.416-.321.587-.858.438-1.368-1.408-4.818-.403-10.246 2.828-15.289 4.567-7.125 12.757-12.45 21.37-13.897.701-.119 1.41-.209 2.107-.275.604-.055 1.091-.495 1.188-1.065.099-.582-.209-1.166-.763-1.455zM140.965 127.705c-8.191.52-15.716 3.676-22.363 9.38-7.586 6.509-13.035 15.37-17.421 22.502-1.482 2.408-2.88 4.684-4.209 6.622-.597.873-1.21 1.581-1.823 2.106-1.44 1.235-2.829 1.457-4.247.678-3.801-2.085-8.243-9.729-6.592-16.016.118-.449-.156-.904-.626-1.035-.458-.127-.973.107-1.148.541-.587 1.458-1.583 2.816-2.882 3.932-2.267 1.943-5.234 2.982-7.935 2.775-2.196-.169-4.08-1.147-5.446-2.833-.304-.377-.886-.448-1.293-.162-.417.293-.503.833-.21 1.217 2.321 3.022 7.245 14.775 3.906 20.564-.771 1.335-2.352 1.265-2.352 1.265-2.477-.049-7.684-3.048-8.27-3.39-5.653-3.299-13.394-7.816-22.997-10.288-11.338-2.919-22.929-2.279-34.449 1.899-.448.162-.696.628-.578 1.05.122.436.572.704 1.047.626 3.184-.523 9.827-.319 14.531 3.763 3.713 3.225 5.26 8.125 4.597 14.566a.849.849 0 0 0 .492.85.977.977 0 0 0 1.032-.116c5.75-4.587 9.696-3.876 11.86-2.282 6.717 4.946 3.884 9.802 3.884 9.802-.24.417-.169.809.145 1.088a.976.976 0 0 0 1.186.066c5.551-3.785 20.301-4.885 31.567-2.355 7.746 1.741 13.23 5.026 15.443 9.253.191.367.623.553 1.049.452.417-.097.721-.47.718-.866-.027-4.479 3.218-9.744 9.14-14.825 4.953-4.25 11.396-8.061 17.675-10.457 6.127-2.338 11.341-2.973 13.946-1.698.396.193.9.09 1.18-.255a.83.83 0 0 0-.059-1.13c-1.964-1.942-2.967-4.718-2.824-7.81.157-3.368 1.681-6.604 4.077-8.662a9.666 9.666 0 0 1 5.497-2.33.957.957 0 0 0 .797-.583.829.829 0 0 0-.218-.916c-2.42-2.227-3.693-5.612-3.587-9.536.151-5.543 2.944-11.303 7.288-15.029.353-.304.72-.596 1.09-.868a.858.858 0 0 0 .305-1c-.143-.359-.513-.582-.923-.555zM220.366 205.274c-6.166-1.559-12.771-1.144-18.087-.811-1.795.111-3.491.219-4.986.239-.673.01-1.266-.05-1.764-.177-1.17-.295-1.794-.937-1.909-1.959-.309-2.741 2.038-7.853 5.912-9.298a.545.545 0 0 0 .309-.705c-.102-.285-.413-.467-.702-.397-.973.229-2.044.209-3.101-.059-1.842-.466-3.47-1.628-4.352-3.107-.718-1.204-.899-2.543-.523-3.871a.618.618 0 0 0-.39-.732c-.307-.108-.618.044-.71.336-.722 2.315-5.027 9.185-9.263 9.57-.977.089-1.52-.76-1.52-.76-.882-1.307-1.232-5.113-1.27-5.542-.355-4.149-.845-9.83-3.08-15.729-2.638-6.966-7.22-12.758-13.614-17.218-.249-.173-.582-.131-.758.084-.183.223-.156.556.058.774 1.438 1.464 3.769 4.992 3.37 8.935-.315 3.113-2.296 5.714-5.89 7.729a.54.54 0 0 0-.261.568c.039.234.21.427.438.494 4.493 1.309 5.569 3.621 5.534 5.33-.11 5.307-3.674 5.613-3.674 5.613-.305.027-.481.208-.513.475a.622.622 0 0 0 .4.641c4.002 1.499 9.98 8.767 12.796 15.552 1.934 4.666 2.234 8.722.849 11.422a.59.59 0 0 0 .149.711.584.584 0 0 0 .714.056c2.319-1.656 6.246-1.897 11.06-.682 4.025 1.018 8.368 2.971 11.916 5.356 3.462 2.329 5.703 4.809 5.996 6.63.044.277.283.502.564.521s.52-.167.565-.444c.29-1.733 1.365-3.271 3.026-4.332 1.808-1.152 4.05-1.547 5.998-1.055a6.144 6.144 0 0 1 3.226 2.004.613.613 0 0 0 .597.201.527.527 0 0 0 .396-.449c.271-2.075 1.564-3.978 3.645-5.359 2.938-1.954 6.957-2.612 10.486-1.721.287.072.573.156.851.249.239.08.5-.006.632-.208a.581.581 0 0 0-.048-.683c-3.269-4.07-7.667-6.826-13.072-8.192z"/>
</svg>