<svg xmlns="http://www.w3.org/2000/svg" data-name="Layer 1" viewBox="0 0 24 24">
  <path d="m12.323 8.036-1.318-.715a3.132 3.132 0 0 0-.859-3.765l1.007-1.112a4.623 4.623 0 0 1 1.17 5.592Z" style="fill:#c78657"/>
  <path d="M7.125 6h-.25C4.183 6 2 9.358 2 13.5S4.183 21 6.875 21h.25C9.817 21 12 17.642 12 13.5S9.817 6 7.125 6ZM17.125 6h-.25C14.183 6 12 9.358 12 13.5s2.183 7.5 4.875 7.5h.25C19.817 21 22 17.642 22 13.5S19.817 6 17.125 6Z" style="fill:#ffab66"/>
  <path d="M12.076 6h-.152C9.204 6 7 9.358 7 13.5S9.205 21 11.924 21h.152C14.796 21 17 17.642 17 13.5S14.795 6 12.076 6Z" style="fill:#ffab66"/>
  <path d="M10 12H5l1-3 4 3zM14 12h5l-1-3-4 3zM13.5 14h-3l1.5-2 1.5 2z" style="fill:#fff"/>
  <path d="M15.111 17.828 12 16.791l-3.111 1.037-3.305-2.204.832-1.248 2.695 1.796L12 15.209l2.889.963 2.695-1.796.832 1.248-3.305 2.204z" style="fill:#fff7c2"/>
</svg>